<svg class="main-svg" xmlns="http://www.w3.org/2000/svg" xmlns:xlink="http://www.w3.org/1999/xlink" width="700" height="500" viewBox="0 0 700 500"><rect x="0" y="0" width="700" height="500" style="fill: rgb(255, 255, 255); fill-opacity: 1;"/><defs id="defs-fe4e40"><g class="clips"><clipPath id="clipfe4e40xyplot" class="plotclip"><rect width="540" height="320"/></clipPath><clipPath class="axesclip" id="clipfe4e40x"><rect x="80" y="0" width="540" height="500"/></clipPath><clipPath class="axesclip" id="clipfe4e40y"><rect x="0" y="100" width="700" height="320"/></clipPath><clipPath class="axesclip" id="clipfe4e40xy"><rect x="80" y="100" width="540" height="320"/></clipPath></g><g class="gradients"/></defs><g class="bglayer"><rect class="bg" x="80" y="100" width="540" height="320" style="fill: rgb(229, 236, 246); fill-opacity: 1; stroke-width: 0;"/></g><g class="layer-below"><g class="imagelayer"/><g class="shapelayer"/></g><g class="cartesianlayer"><g class="subplot xy"><g class="layer-subplot"><g class="shapelayer"/><g class="imagelayer"/></g><g class="gridlayer"><g class="x"/><g class="y"><path class="ygrid crisp" transform="translate(0,341.72)" d="M80,0h540" style="stroke: rgb(255, 255, 255); stroke-opacity: 1; stroke-width: 1px;"/><path class="ygrid crisp" transform="translate(0,278.05)" d="M80,0h540" style="stroke: rgb(255, 255, 255); stroke-opacity: 1; stroke-width: 1px;"/><path class="ygrid crisp" transform="translate(0,214.39)" d="M80,0h540" style="stroke: rgb(255, 255, 255); stroke-opacity: 1; stroke-width: 1px;"/><path class="ygrid crisp" transform="translate(0,150.73)" d="M80,0h540" style="stroke: rgb(255, 255, 255); stroke-opacity: 1; stroke-width: 1px;"/></g></g><g class="zerolinelayer"><path class="yzl zl crisp" transform="translate(0,405.38)" d="M80,0h540" style="stroke: rgb(255, 255, 255); stroke-opacity: 1; stroke-width: 2px;"/></g><path class="xlines-below"/><path class="ylines-below"/><g class="overlines-below"/><g class="xaxislayer-below"/><g class="yaxislayer-below"/><g class="overaxes-below"/><g class="plot" transform="translate(80, 100)" clip-path="url('#clipfe4e40xyplot')"><g class="barlayer mlayer"><g class="trace bars" shape-rendering="crispEdges" style="opacity: 0.7;"><g class="points"><g class="point"><path d="M0,305.38V299.53H11.02V305.38Z" style="vector-effect: non-scaling-stroke; opacity: 1; stroke-width: 0px; fill: rgb(31, 119, 180); fill-opacity: 1;"/></g><g class="point"><path d="M11.02,305.38V305.38H22.04V305.38Z" style="vector-effect: non-scaling-stroke; opacity: 1; stroke-width: 0px; fill: rgb(31, 119, 180); fill-opacity: 1;"/></g><g class="point"><path d="M22.04,305.38V299.53H33.06V305.38Z" style="vector-effect: non-scaling-stroke; opacity: 1; stroke-width: 0px; fill: rgb(31, 119, 180); fill-opacity: 1;"/></g><g class="point"><path d="M33.06,305.38V305.38H44.08V305.38Z" style="vector-effect: non-scaling-stroke; opacity: 1; stroke-width: 0px; fill: rgb(31, 119, 180); fill-opacity: 1;"/></g><g class="point"><path d="M44.08,305.38V299.53H55.1V305.38Z" style="vector-effect: non-scaling-stroke; opacity: 1; stroke-width: 0px; fill: rgb(31, 119, 180); fill-opacity: 1;"/></g><g class="point"><path d="M55.1,305.38V290.76H66.12V305.38Z" style="vector-effect: non-scaling-stroke; opacity: 1; stroke-width: 0px; fill: rgb(31, 119, 180); fill-opacity: 1;"/></g><g class="point"><path d="M66.12,305.38V276.15H77.14V305.38Z" style="vector-effect: non-scaling-stroke; opacity: 1; stroke-width: 0px; fill: rgb(31, 119, 180); fill-opacity: 1;"/></g><g class="point"><path d="M77.14,305.38V261.53H88.16V305.38Z" style="vector-effect: non-scaling-stroke; opacity: 1; stroke-width: 0px; fill: rgb(31, 119, 180); fill-opacity: 1;"/></g><g class="point"><path d="M88.16,305.38V229.38H99.18V305.38Z" style="vector-effect: non-scaling-stroke; opacity: 1; stroke-width: 0px; fill: rgb(31, 119, 180); fill-opacity: 1;"/></g><g class="point"><path d="M99.18,305.38V156.31H110.2V305.38Z" style="vector-effect: non-scaling-stroke; opacity: 1; stroke-width: 0px; fill: rgb(31, 119, 180); fill-opacity: 1;"/></g><g class="point"><path d="M110.2,305.38V173.84H121.22V305.38Z" style="vector-effect: non-scaling-stroke; opacity: 1; stroke-width: 0px; fill: rgb(31, 119, 180); fill-opacity: 1;"/></g><g class="point"><path d="M121.22,305.38V121.23H132.24V305.38Z" style="vector-effect: non-scaling-stroke; opacity: 1; stroke-width: 0px; fill: rgb(31, 119, 180); fill-opacity: 1;"/></g><g class="point"><path d="M132.24,305.38V80.31H143.27V305.38Z" style="vector-effect: non-scaling-stroke; opacity: 1; stroke-width: 0px; fill: rgb(31, 119, 180); fill-opacity: 1;"/></g><g class="point"><path d="M143.27,305.38V36.46H154.29V305.38Z" style="vector-effect: non-scaling-stroke; opacity: 1; stroke-width: 0px; fill: rgb(31, 119, 180); fill-opacity: 1;"/></g><g class="point"><path d="M154.29,305.38V27.69H165.31V305.38Z" style="vector-effect: non-scaling-stroke; opacity: 1; stroke-width: 0px; fill: rgb(31, 119, 180); fill-opacity: 1;"/></g><g class="point"><path d="M165.31,305.38V51.08H176.33V305.38Z" style="vector-effect: non-scaling-stroke; opacity: 1; stroke-width: 0px; fill: rgb(31, 119, 180); fill-opacity: 1;"/></g><g class="point"><path d="M176.33,305.38V16H187.35V305.38Z" style="vector-effect: non-scaling-stroke; opacity: 1; stroke-width: 0px; fill: rgb(31, 119, 180); fill-opacity: 1;"/></g><g class="point"><path d="M187.35,305.38V56.92H198.37V305.38Z" style="vector-effect: non-scaling-stroke; opacity: 1; stroke-width: 0px; fill: rgb(31, 119, 180); fill-opacity: 1;"/></g><g class="point"><path d="M198.37,305.38V62.77H209.39V305.38Z" style="vector-effect: non-scaling-stroke; opacity: 1; stroke-width: 0px; fill: rgb(31, 119, 180); fill-opacity: 1;"/></g><g class="point"><path d="M209.39,305.38V109.54H220.41V305.38Z" style="vector-effect: non-scaling-stroke; opacity: 1; stroke-width: 0px; fill: rgb(31, 119, 180); fill-opacity: 1;"/></g><g class="point"><path d="M220.41,305.38V203.07H231.43V305.38Z" style="vector-effect: non-scaling-stroke; opacity: 1; stroke-width: 0px; fill: rgb(31, 119, 180); fill-opacity: 1;"/></g><g class="point"><path d="M231.43,305.38V214.77H242.45V305.38Z" style="vector-effect: non-scaling-stroke; opacity: 1; stroke-width: 0px; fill: rgb(31, 119, 180); fill-opacity: 1;"/></g><g class="point"><path d="M242.45,305.38V214.77H253.47V305.38Z" style="vector-effect: non-scaling-stroke; opacity: 1; stroke-width: 0px; fill: rgb(31, 119, 180); fill-opacity: 1;"/></g><g class="point"><path d="M253.47,305.38V264.46H264.49V305.38Z" style="vector-effect: non-scaling-stroke; opacity: 1; stroke-width: 0px; fill: rgb(31, 119, 180); fill-opacity: 1;"/></g><g class="point"><path d="M264.49,305.38V273.23H275.51V305.38Z" style="vector-effect: non-scaling-stroke; opacity: 1; stroke-width: 0px; fill: rgb(31, 119, 180); fill-opacity: 1;"/></g><g class="point"><path d="M275.51,305.38V279.07H286.53V305.38Z" style="vector-effect: non-scaling-stroke; opacity: 1; stroke-width: 0px; fill: rgb(31, 119, 180); fill-opacity: 1;"/></g><g class="point"><path d="M286.53,305.38V279.07H297.55V305.38Z" style="vector-effect: non-scaling-stroke; opacity: 1; stroke-width: 0px; fill: rgb(31, 119, 180); fill-opacity: 1;"/></g><g class="point"><path d="M297.55,305.38V276.15H308.57V305.38Z" style="vector-effect: non-scaling-stroke; opacity: 1; stroke-width: 0px; fill: rgb(31, 119, 180); fill-opacity: 1;"/></g><g class="point"><path d="M308.57,305.38V299.53H319.59V305.38Z" style="vector-effect: non-scaling-stroke; opacity: 1; stroke-width: 0px; fill: rgb(31, 119, 180); fill-opacity: 1;"/></g><g class="point"><path d="M319.59,305.38V299.53H330.61V305.38Z" style="vector-effect: non-scaling-stroke; opacity: 1; stroke-width: 0px; fill: rgb(31, 119, 180); fill-opacity: 1;"/></g><g class="point"><path d="M330.61,305.38V299.53H341.63V305.38Z" style="vector-effect: non-scaling-stroke; opacity: 1; stroke-width: 0px; fill: rgb(31, 119, 180); fill-opacity: 1;"/></g><g class="point"><path d="M341.63,305.38V293.69H352.65V305.38Z" style="vector-effect: non-scaling-stroke; opacity: 1; stroke-width: 0px; fill: rgb(31, 119, 180); fill-opacity: 1;"/></g><g class="point"><path d="M352.65,305.38V302.46H363.67V305.38Z" style="vector-effect: non-scaling-stroke; opacity: 1; stroke-width: 0px; fill: rgb(31, 119, 180); fill-opacity: 1;"/></g><g class="point"><path d="M363.67,305.38V296.61H374.69V305.38Z" style="vector-effect: non-scaling-stroke; opacity: 1; stroke-width: 0px; fill: rgb(31, 119, 180); fill-opacity: 1;"/></g><g class="point"><path d="M374.69,305.38V296.61H385.71V305.38Z" style="vector-effect: non-scaling-stroke; opacity: 1; stroke-width: 0px; fill: rgb(31, 119, 180); fill-opacity: 1;"/></g><g class="point"><path d="M385.71,305.38V299.53H396.73V305.38Z" style="vector-effect: non-scaling-stroke; opacity: 1; stroke-width: 0px; fill: rgb(31, 119, 180); fill-opacity: 1;"/></g><g class="point"><path d="M396.73,305.38V302.46H407.76V305.38Z" style="vector-effect: non-scaling-stroke; opacity: 1; stroke-width: 0px; fill: rgb(31, 119, 180); fill-opacity: 1;"/></g><g class="point"><path d="M407.76,305.38V302.46H418.78V305.38Z" style="vector-effect: non-scaling-stroke; opacity: 1; stroke-width: 0px; fill: rgb(31, 119, 180); fill-opacity: 1;"/></g><g class="point"><path d="M418.78,305.38V299.53H429.8V305.38Z" style="vector-effect: non-scaling-stroke; opacity: 1; stroke-width: 0px; fill: rgb(31, 119, 180); fill-opacity: 1;"/></g><g class="point"><path d="M429.8,305.38V302.46H440.82V305.38Z" style="vector-effect: non-scaling-stroke; opacity: 1; stroke-width: 0px; fill: rgb(31, 119, 180); fill-opacity: 1;"/></g><g class="point"><path d="M440.82,305.38V305.38H451.84V305.38Z" style="vector-effect: non-scaling-stroke; opacity: 1; stroke-width: 0px; fill: rgb(31, 119, 180); fill-opacity: 1;"/></g><g class="point"><path d="M451.84,305.38V305.38H462.86V305.38Z" style="vector-effect: non-scaling-stroke; opacity: 1; stroke-width: 0px; fill: rgb(31, 119, 180); fill-opacity: 1;"/></g><g class="point"><path d="M462.86,305.38V299.53H473.88V305.38Z" style="vector-effect: non-scaling-stroke; opacity: 1; stroke-width: 0px; fill: rgb(31, 119, 180); fill-opacity: 1;"/></g><g class="point"><path d="M473.88,305.38V302.46H484.9V305.38Z" style="vector-effect: non-scaling-stroke; opacity: 1; stroke-width: 0px; fill: rgb(31, 119, 180); fill-opacity: 1;"/></g><g class="point"><path d="M484.9,305.38V296.61H495.92V305.38Z" style="vector-effect: non-scaling-stroke; opacity: 1; stroke-width: 0px; fill: rgb(31, 119, 180); fill-opacity: 1;"/></g><g class="point"><path d="M495.92,305.38V305.38H506.94V305.38Z" style="vector-effect: non-scaling-stroke; opacity: 1; stroke-width: 0px; fill: rgb(31, 119, 180); fill-opacity: 1;"/></g><g class="point"><path d="M506.94,305.38V299.53H517.96V305.38Z" style="vector-effect: non-scaling-stroke; opacity: 1; stroke-width: 0px; fill: rgb(31, 119, 180); fill-opacity: 1;"/></g><g class="point"><path d="M517.96,305.38V305.38H528.98V305.38Z" style="vector-effect: non-scaling-stroke; opacity: 1; stroke-width: 0px; fill: rgb(31, 119, 180); fill-opacity: 1;"/></g><g class="point"><path d="M528.98,305.38V302.46H540V305.38Z" style="vector-effect: non-scaling-stroke; opacity: 1; stroke-width: 0px; fill: rgb(31, 119, 180); fill-opacity: 1;"/></g></g></g></g><g class="scatterlayer mlayer"><g class="trace scatter trace7deabb" style="stroke-miterlimit: 2; opacity: 1;"><g class="fills"/><g class="errorbars"/><g class="lines"><path class="js-line" d="M0,303.42L33.03,301.74L34.1,301.54L41.56,299.49L42.63,299.07L49.02,295.77L50.08,295.08L56.48,289.98L57.54,288.97L63.94,281.91L65,280.56L71.4,271.31L72.46,269.56L78.86,257.58L79.92,255.32L87.38,237.32L88.45,234.45L99.1,202.77L100.17,199.42L128.94,110.32L130.01,107.21L140.66,78.06L141.73,75.39L149.19,58.53L150.25,56.42L156.65,45.87L157.71,44.5L161.98,40.21L163.04,39.44L167.3,37.57L168.37,37.39L172.63,37.73L173.7,38.05L179.03,40.94L180.09,41.75L185.42,46.99L186.49,48.29L191.81,56.26L192.88,58.19L198.21,69.8L199.27,72.54L205.67,91.91L206.73,95.59L215.26,128.04L216.32,132.28L228.04,176.3L229.11,179.84L237.64,204.82L238.7,207.57L248.29,229.91L249.36,232.18L258.95,250.71L260.01,252.53L267.47,263.5L268.54,264.8L274.93,271.24L276,272.1L282.39,276.25L283.46,276.8L295.18,281.85L296.24,282.3L310.1,288.87L311.16,289.41L323.95,295.03L325.02,295.37L333.54,297.27L334.61,297.42L347.4,298.14L348.46,298.15L386.82,299.12L387.89,299.21L448.63,303.68L449.7,303.68L461.42,302.87L462.48,302.73L484.86,300.41L485.93,300.41L499.78,301.25L500.85,301.36L531.75,304" style="vector-effect: non-scaling-stroke; fill: none; stroke: rgb(31, 119, 180); stroke-opacity: 1; stroke-width: 2px; opacity: 1;"/></g><g class="points"/><g class="text"/></g></g></g><g class="overplot"/><path class="xlines-above crisp" d="M0,0" style="fill: none;"/><path class="ylines-above crisp" d="M0,0" style="fill: none;"/><g class="overlines-above"/><g class="xaxislayer-above"><g class="xtick"><text text-anchor="middle" x="0" y="433" transform="translate(107.05,0)" style="font-family: 'Open Sans', verdana, arial, sans-serif; font-size: 12px; fill: rgb(127, 127, 127); fill-opacity: 1; white-space: pre;">100</text></g><g class="xtick"><text text-anchor="middle" x="0" y="433" transform="translate(217.26,0)" style="font-family: 'Open Sans', verdana, arial, sans-serif; font-size: 12px; fill: rgb(127, 127, 127); fill-opacity: 1; white-space: pre;">200</text></g><g class="xtick"><text text-anchor="middle" x="0" y="433" transform="translate(327.46000000000004,0)" style="font-family: 'Open Sans', verdana, arial, sans-serif; font-size: 12px; fill: rgb(127, 127, 127); fill-opacity: 1; white-space: pre;">300</text></g><g class="xtick"><text text-anchor="middle" x="0" y="433" transform="translate(437.66,0)" style="font-family: 'Open Sans', verdana, arial, sans-serif; font-size: 12px; fill: rgb(127, 127, 127); fill-opacity: 1; white-space: pre;">400</text></g><g class="xtick"><text text-anchor="middle" x="0" y="433" transform="translate(547.87,0)" style="font-family: 'Open Sans', verdana, arial, sans-serif; font-size: 12px; fill: rgb(127, 127, 127); fill-opacity: 1; white-space: pre;">500</text></g></g><g class="yaxislayer-above"><g class="ytick"><text text-anchor="end" x="80" y="4.199999999999999" transform="translate(0,405.38)" style="font-family: 'Open Sans', verdana, arial, sans-serif; font-size: 12px; fill: rgb(127, 127, 127); fill-opacity: 1; white-space: pre;">0</text></g><g class="ytick"><text text-anchor="end" x="80" y="4.199999999999999" transform="translate(0,341.72)" style="font-family: 'Open Sans', verdana, arial, sans-serif; font-size: 12px; fill: rgb(127, 127, 127); fill-opacity: 1; white-space: pre;">0.002</text></g><g class="ytick"><text text-anchor="end" x="80" y="4.199999999999999" transform="translate(0,278.05)" style="font-family: 'Open Sans', verdana, arial, sans-serif; font-size: 12px; fill: rgb(127, 127, 127); fill-opacity: 1; white-space: pre;">0.004</text></g><g class="ytick"><text text-anchor="end" x="80" y="4.199999999999999" transform="translate(0,214.39)" style="font-family: 'Open Sans', verdana, arial, sans-serif; font-size: 12px; fill: rgb(127, 127, 127); fill-opacity: 1; white-space: pre;">0.006</text></g><g class="ytick"><text text-anchor="end" x="80" y="4.199999999999999" transform="translate(0,150.73)" style="font-family: 'Open Sans', verdana, arial, sans-serif; font-size: 12px; fill: rgb(127, 127, 127); fill-opacity: 1; white-space: pre;">0.008</text></g></g><g class="overaxes-above"/></g></g><g class="polarlayer"/><g class="ternarylayer"/><g class="geolayer"/><g class="funnelarealayer"/><g class="pielayer"/><g class="treemaplayer"/><g class="sunburstlayer"/><g class="glimages"/><defs id="topdefs-fe4e40"><g class="clips"/></defs><g class="layer-above"><g class="imagelayer"/><g class="shapelayer"/></g><g class="infolayer"><g class="g-gtitle"><text class="gtitle" x="35" y="50" text-anchor="start" dy="0em" style="font-family: 'Open Sans', verdana, arial, sans-serif; font-size: 17px; fill: rgb(127, 127, 127); opacity: 1; font-weight: normal; white-space: pre;">Duration Distribution</text></g><g class="g-xtitle"><text class="xtitle" x="350" y="460.45625" text-anchor="middle" style="font-family: 'Open Sans', verdana, arial, sans-serif; font-size: 14px; fill: rgb(127, 127, 127); opacity: 1; font-weight: normal; white-space: pre;">Duration (seconds)</text></g><g class="g-ytitle"><text class="ytitle" transform="rotate(-90,20.309375000000003,260)" x="20.309375000000003" y="260" text-anchor="middle" style="font-family: 'Open Sans', verdana, arial, sans-serif; font-size: 14px; fill: rgb(127, 127, 127); opacity: 1; font-weight: normal; white-space: pre;">Probability Density</text></g></g></svg>